<svg width="24" height="24" viewBox="0 0 24 24" fill="none" xmlns="http://www.w3.org/2000/svg">
<g clip-path="url(#clip0_6853_58547)">
<path d="M17.1788 14.6348C17.7421 14.8813 18.2023 15.1588 18.548 15.4502C19.1054 15.9201 19.2921 16.3542 19.2921 16.7158V19.7158H15.1876C16.4549 17.7556 16.9791 15.9455 17.1788 14.6348ZM12.3058 14.8809L13.1163 19.7109L13.1173 19.7158H11.4669L11.4679 19.7109L12.2784 14.8809L12.2921 14.7988L12.3058 14.8809ZM7.4054 14.6367C7.60533 15.9473 8.12994 17.7566 9.39661 19.7158H5.29211V16.7158C5.29211 16.3562 5.47933 15.9223 6.03918 15.4512C6.38514 15.1601 6.84479 14.8829 7.4054 14.6367ZM12.2921 13.7158C12.4185 13.7158 12.5445 13.7181 12.67 13.7217L12.3976 14.2686L12.2921 14.4795L11.9132 13.7217C12.0391 13.718 12.1654 13.7158 12.2921 13.7158ZM12.2921 3.71582C13.9498 3.71582 15.2921 5.05811 15.2921 6.71582C15.2921 8.37354 13.9498 9.71582 12.2921 9.71582C10.6344 9.71582 9.29211 8.37354 9.29211 6.71582C9.29211 5.05811 10.6344 3.71582 12.2921 3.71582Z" stroke="#008446" stroke-width="2"/>
</g>
<defs>
<clipPath id="clip0_6853_58547">
<rect width="24" height="24" fill="white"/>
</clipPath>
</defs>
</svg>
