<svg width="24" height="24" viewBox="0 0 24 24" fill="none" xmlns="http://www.w3.org/2000/svg">
<g clip-path="url(#clip0_12810_47640)">
<g clip-path="url(#clip1_12810_47640)">
<path d="M19.8988 20.5425H16.8988V18.5425H19.8988V20.5425ZM19.8988 16.5425H16.8988V14.5425H19.8988V16.5425ZM19.8988 12.5425H16.8988V10.5425H19.8988V12.5425ZM23.8988 7.34248C23.4988 4.04248 20.6988 1.54248 17.3988 1.54248C15.6988 1.54248 13.9988 2.24248 12.7988 3.44248C12.0988 4.14248 11.5988 4.84248 11.2988 5.74248L15.4988 8.54248H21.8988V21.5425H23.8988V7.34248ZM13.1988 6.54248C13.7988 4.74248 15.4988 3.54248 17.3988 3.54248C19.2988 3.54248 20.9988 4.74248 21.5988 6.54248H13.1988ZM7.3988 5.54248L-0.101196 10.5425V21.5425H14.8988V10.5425L7.3988 5.54248ZM12.8988 19.5425H9.8988V13.5425H4.8988V19.5425H1.8988V11.5425L7.3988 8.04248L12.8988 11.5425V19.5425Z" fill="#008446"/>
</g>
</g>
<defs>
<clipPath id="clip0_12810_47640">
<rect width="24" height="24" fill="white"/>
</clipPath>
<clipPath id="clip1_12810_47640">
<rect width="24" height="24" fill="white"/>
</clipPath>
</defs>
</svg>
