<svg width="24" height="24" viewBox="0 0 24 24" fill="none" xmlns="http://www.w3.org/2000/svg">
<g clip-path="url(#clip0_38843_139640)">
<g clip-path="url(#clip1_38843_139640)">
<path d="M23.3486 16.6165L18.3486 21.6165L14.8486 18.1165L16.3486 16.6165L18.3486 18.6165L21.8486 15.1165L23.3486 16.6165Z" fill="#008446"/>
<path d="M11.07 15.43L9.65 14.02L11.07 12.6L12.48 14.02L13.89 12.6L12.48 11.19L13.89 9.78L15.31 11.19L16.72 9.78L13.89 6.95L6.82 14.02L9.65 16.85L11.07 15.43ZM3 19.25L6.12 16.14L4 14.02L13.89 4.12L16.02 6.25L17.42 4.83L16.02 3.41L17.42 2L21.67 6.25L20.26 7.65L18.84 6.25L17.42 7.65L19.55 9.78L9.65 19.67L7.53 17.55L3 22.09V19.25Z" fill="#008446"/>
</g>
</g>
<defs>
<clipPath id="clip0_38843_139640">
<rect width="24" height="24" fill="white"/>
</clipPath>
<clipPath id="clip1_38843_139640">
<rect width="24" height="24" fill="white" transform="translate(-0.151367 -0.383545)"/>
</clipPath>
</defs>
</svg>
