<svg width="24" height="24" viewBox="0 0 24 24" fill="none" xmlns="http://www.w3.org/2000/svg">
<g clip-path="url(#clip0_43776_131550)">
<path d="M7.18573 2.01202L17.2132 2.01497C17.2197 2.67676 17.218 3.33859 17.2083 4.00034C16.9426 4.0078 16.4315 4.03468 16.1905 3.99966C16.1562 5.06075 16.1834 6.2773 16.1835 7.34804L16.1844 13.6203L16.1856 15.9338C16.186 17.153 16.244 18.1966 15.4856 19.241C15.358 19.4271 15.1583 19.6657 14.9968 19.8322C12.8226 22.0734 9.05562 20.9371 8.33201 17.9602C8.15919 17.2491 8.21087 16.4875 8.21178 15.734L8.21241 13.5124L8.21272 7.4533C8.2167 6.30484 8.21466 5.1564 8.20658 4.00798C7.86451 4.02034 7.48597 3.98431 7.17554 4.00454C7.20214 3.38886 7.17793 2.64662 7.18573 2.01202ZM10.4283 17.7959C10.5817 18.0951 10.6774 18.3582 10.9611 18.5585C11.6602 19.0519 12.4994 19.1018 13.249 18.6892C13.6553 18.4656 13.6814 18.2608 13.9565 17.9187C14.0457 17.7767 14.1312 17.6004 14.1597 17.434C14.2343 16.9986 14.2589 13.9434 14.1678 13.5743C14.1598 13.5418 14.1477 13.511 14.133 13.4809L14.0986 13.4636C13.8069 13.5622 13.5791 14.3497 12.7883 13.9125C12.1684 13.5697 12.0467 13.0378 12.3725 12.4266C12.405 12.3658 12.438 12.3052 12.4716 12.245C12.8231 12.0663 13.084 11.9173 13.4948 12.0462C13.6865 12.1064 13.763 12.1838 13.9265 12.2615C13.9554 12.3893 13.9587 12.4952 14.0644 12.5675C14.085 12.5646 14.1089 12.5673 14.1217 12.5501C14.2771 12.3414 14.2132 10.382 14.2071 10.0068C13.2951 10.0194 12.3699 10.0012 11.4562 10.0082C11.2233 10.01 10.3638 10.0293 10.1906 10.0014C10.1512 11.9642 10.2054 13.9428 10.1848 15.907C10.1833 16.0468 10.1714 16.433 10.2561 16.5355C10.2918 16.5457 10.3281 16.5576 10.3535 16.5265C10.6277 16.1717 10.8517 15.8853 11.3579 15.9964C11.9045 16.1163 12.3276 16.656 12.1678 17.2164C11.8904 18.1891 11.1631 18.0779 10.4283 17.7959ZM10.1812 7.99742C10.6562 8.0146 11.1403 8.0161 11.6159 8.01174C12.4801 8.00384 13.3483 8.02309 14.212 8.0116C14.2092 6.68698 14.2291 5.32824 14.2071 4.00681C13.2959 4.01884 12.3722 4.00177 11.4594 4.00831C11.225 4.00998 10.3644 4.02936 10.1906 4.00133C10.1636 5.30237 10.2279 6.72099 10.1812 7.99742Z" fill="#008446"/>
</g>
<defs>
<clipPath id="clip0_43776_131550">
<rect width="24" height="24" fill="white"/>
</clipPath>
</defs>
</svg>
