<svg width="24" height="24" viewBox="0 0 24 24" fill="none" xmlns="http://www.w3.org/2000/svg">
<g clip-path="url(#clip0_44131_127788)">
<g clip-path="url(#clip1_44131_127788)">
<path d="M4 17V8L8 4H9V2H11V4H20L24 8V17H4ZM18 15H22V8.825L20 6.825L18 8.825V15ZM6 15H16V10H6V15Z" fill="#008446"/>
<circle cx="3" cy="17" r="6" fill="white"/>
<path d="M4.34961 12.9004V13.8906C5.34781 14.1392 6.09961 14.8256 6.09961 15.667V15.7666H4.90039V15.667C4.90039 15.4777 4.76367 15.2817 4.50488 15.1279C4.24918 14.9761 3.89196 14.8779 3.5 14.8779C3.10804 14.8779 2.75082 14.9761 2.49512 15.1279C2.23633 15.2817 2.09961 15.4777 2.09961 15.667C2.09967 15.7695 2.12688 15.8507 2.17871 15.9209C2.2321 15.993 2.31696 16.0597 2.44238 16.123C2.69641 16.2512 3.0887 16.3525 3.64062 16.4707L3.6416 16.4717C4.16786 16.5886 4.77826 16.7228 5.25586 16.9883C5.74017 17.2576 6.09949 17.6691 6.09961 18.333C6.09961 19.1743 5.34769 19.8598 4.34961 20.1084V21.0996H2.65039V20.1084C1.65231 19.8598 0.900391 19.1743 0.900391 18.333V18.2334H2.09961V18.333C2.09961 18.5223 2.23633 18.7183 2.49512 18.8721C2.75082 19.0239 3.10804 19.1221 3.5 19.1221C3.89196 19.1221 4.24918 19.0239 4.50488 18.8721C4.76367 18.7183 4.90039 18.5223 4.90039 18.333C4.90033 18.2305 4.87312 18.1493 4.82129 18.0791C4.7679 18.007 4.68304 17.9403 4.55762 17.877C4.30359 17.7488 3.9113 17.6475 3.35938 17.5293L3.3584 17.5283C2.83214 17.4114 2.22174 17.2772 1.74414 17.0117C1.25983 16.7424 0.900508 16.3309 0.900391 15.667C0.900391 14.8256 1.65219 14.1392 2.65039 13.8906V12.9004H4.34961Z" fill="#008446" stroke="#008446" stroke-width="0.2"/>
</g>
</g>
<defs>
<clipPath id="clip0_44131_127788">
<rect width="24" height="24" fill="white"/>
</clipPath>
<clipPath id="clip1_44131_127788">
<rect width="24" height="24" fill="white"/>
</clipPath>
</defs>
</svg>
