<svg width="24" height="24" viewBox="0 0 24 24" fill="none" xmlns="http://www.w3.org/2000/svg">
<g clip-path="url(#clip0_43472_78265)">
<path d="M20.3884 5.98541C20.9684 5.98541 21.4384 6.18541 21.8084 6.57541C22.1884 6.98541 22.3884 7.43541 22.3884 7.98541V18.9854C22.3884 19.5354 22.1884 19.9854 21.8084 20.3954C21.4384 20.7854 20.9684 20.9854 20.3884 20.9854H4.38843C3.80843 20.9854 3.33843 20.7854 2.96843 20.3954C2.58843 19.9854 2.38843 19.5354 2.38843 18.9854V7.98541C2.38843 7.43541 2.58843 6.98541 2.96843 6.57541C3.33843 6.18541 3.80843 5.98541 4.38843 5.98541H8.38843V3.98541C8.38843 3.40541 8.58843 2.93541 8.96843 2.56541C9.33843 2.18541 9.80843 1.98541 10.3884 1.98541H14.3884C14.9684 1.98541 15.4384 2.18541 15.8084 2.56541C16.1884 2.93541 16.3884 3.40541 16.3884 3.98541V5.98541H20.3884ZM4.38843 7.98541V18.9854H20.3884V7.98541H4.38843ZM14.3884 5.98541V3.98541H10.3884V5.98541H14.3884Z" fill="#008446"/>
</g>
<defs>
<clipPath id="clip0_43472_78265">
<rect width="24" height="24" fill="white"/>
</clipPath>
</defs>
</svg>
