<svg width="24" height="24" viewBox="0 0 24 24" fill="none" xmlns="http://www.w3.org/2000/svg">
<path d="M11.7095 2.15796C10.3963 2.15796 9.09589 2.41662 7.88264 2.91916C6.66938 3.42171 5.56699 4.15831 4.6384 5.08689C2.76304 6.96226 1.70947 9.50579 1.70947 12.158C1.70947 14.8101 2.76304 17.3537 4.6384 19.229C5.56699 20.1576 6.66938 20.8942 7.88264 21.3968C9.09589 21.8993 10.3963 22.158 11.7095 22.158C14.3616 22.158 16.9052 21.1044 18.7805 19.229C20.6559 17.3537 21.7095 14.8101 21.7095 12.158C21.7095 10.998 21.4995 9.84796 21.0995 8.76796L19.4995 10.368C19.6395 10.958 19.7095 11.558 19.7095 12.158C19.7095 14.2797 18.8666 16.3145 17.3663 17.8148C15.866 19.3151 13.8312 20.158 11.7095 20.158C9.58774 20.158 7.55291 19.3151 6.05262 17.8148C4.55233 16.3145 3.70947 14.2797 3.70947 12.158C3.70947 10.0362 4.55233 8.0014 6.05262 6.5011C7.55291 5.00081 9.58774 4.15796 11.7095 4.15796C12.3095 4.15796 12.9095 4.22796 13.4995 4.36796L15.1095 2.75796C14.0195 2.36796 12.8695 2.15796 11.7095 2.15796ZM18.7095 2.15796L14.7095 6.15796V7.65796L12.1595 10.208C12.0095 10.158 11.8595 10.158 11.7095 10.158C11.179 10.158 10.6703 10.3687 10.2953 10.7437C9.92019 11.1188 9.70947 11.6275 9.70947 12.158C9.70947 12.6884 9.92019 13.1971 10.2953 13.5722C10.6703 13.9472 11.179 14.158 11.7095 14.158C12.2399 14.158 12.7486 13.9472 13.1237 13.5722C13.4988 13.1971 13.7095 12.6884 13.7095 12.158C13.7095 12.008 13.7095 11.858 13.6595 11.708L16.2095 9.15796H17.7095L21.7095 5.15796H18.7095V2.15796ZM11.7095 6.15796C10.1182 6.15796 8.59205 6.7901 7.46683 7.91532C6.34161 9.04054 5.70947 10.5667 5.70947 12.158C5.70947 13.7493 6.34161 15.2754 7.46683 16.4006C8.59205 17.5258 10.1182 18.158 11.7095 18.158C13.3008 18.158 14.8269 17.5258 15.9521 16.4006C17.0773 15.2754 17.7095 13.7493 17.7095 12.158H15.7095C15.7095 13.2188 15.288 14.2362 14.5379 14.9864C13.7878 15.7365 12.7703 16.158 11.7095 16.158C10.6486 16.158 9.63119 15.7365 8.88105 14.9864C8.1309 14.2362 7.70947 13.2188 7.70947 12.158C7.70947 11.0971 8.1309 10.0797 8.88105 9.32953C9.63119 8.57939 10.6486 8.15796 11.7095 8.15796V6.15796Z" fill="#008446"/>
</svg>
