<svg width="24" height="24" viewBox="0 0 24 24" fill="none" xmlns="http://www.w3.org/2000/svg">
<g clip-path="url(#clip0_11596_43746)">
<path d="M19.8181 8.41992H17.0081C16.5581 7.61992 15.9381 6.91992 15.1881 6.41992L16.8181 4.82992L15.4081 3.41992L13.2381 5.58992C12.7781 5.47992 12.3181 5.41992 11.8181 5.41992C11.3181 5.41992 10.8681 5.47992 10.4081 5.58992L8.22812 3.41992L6.81812 4.82992L8.43812 6.41992C7.68812 6.91992 7.07812 7.62992 6.62812 8.41992H3.81812V10.4199H5.90812C5.84812 10.7499 5.81812 11.0799 5.81812 11.4199V12.4199H3.81812V14.4199H5.81812V15.4199C5.81812 15.7599 5.84812 16.0899 5.90812 16.4199H3.81812V18.4199H6.62812C8.28812 21.2899 11.9581 22.2599 14.8181 20.5999C15.7281 20.0799 16.4881 19.3199 17.0081 18.4199H19.8181V16.4199H17.7281C17.7881 16.0899 17.8181 15.7599 17.8181 15.4199V14.4199H19.8181V12.4199H17.8181V11.4199C17.8181 11.0799 17.7881 10.7499 17.7281 10.4199H19.8181V8.41992ZM15.8181 15.4199C15.8181 16.4808 15.3967 17.4982 14.6465 18.2483C13.8964 18.9985 12.879 19.4199 11.8181 19.4199C10.7572 19.4199 9.73983 18.9985 8.98969 18.2483C8.23954 17.4982 7.81812 16.4808 7.81812 15.4199V11.4199C7.81812 10.3591 8.23954 9.34164 8.98969 8.59149C9.73983 7.84135 10.7572 7.41992 11.8181 7.41992C12.879 7.41992 13.8964 7.84135 14.6465 8.59149C15.3967 9.34164 15.8181 10.3591 15.8181 11.4199V15.4199ZM13.8181 10.4199V12.4199H9.81812V10.4199H13.8181ZM9.81812 14.4199H13.8181V16.4199H9.81812V14.4199Z" fill="#008446"/>
</g>
<defs>
<clipPath id="clip0_11596_43746">
<rect width="24" height="24" fill="white"/>
</clipPath>
</defs>
</svg>
