<svg width="24" height="24" viewBox="0 0 24 24" fill="none" xmlns="http://www.w3.org/2000/svg">
<g clip-path="url(#clip0_6853_37465)">
<path d="M19.6796 6.41943C20.2596 6.41943 20.7296 6.61943 21.0996 7.00943C21.4796 7.41943 21.6796 7.86943 21.6796 8.41943V19.4194C21.6796 19.9694 21.4796 20.4194 21.0996 20.8294C20.7296 21.2194 20.2596 21.4194 19.6796 21.4194H3.67957C3.09957 21.4194 2.62957 21.2194 2.25957 20.8294C1.87957 20.4194 1.67957 19.9694 1.67957 19.4194V8.41943C1.67957 7.86943 1.87957 7.41943 2.25957 7.00943C2.62957 6.61943 3.09957 6.41943 3.67957 6.41943H7.67957V4.41943C7.67957 3.83943 7.87957 3.36943 8.25957 2.99943C8.62957 2.61943 9.09957 2.41943 9.67957 2.41943H13.6796C14.2596 2.41943 14.7296 2.61943 15.0996 2.99943C15.4796 3.36943 15.6796 3.83943 15.6796 4.41943V6.41943H19.6796ZM3.67957 8.41943V19.4194H19.6796V8.41943H3.67957ZM13.6796 6.41943V4.41943H9.67957V6.41943H13.6796Z" fill="#008446"/>
</g>
<defs>
<clipPath id="clip0_6853_37465">
<rect width="24" height="24" fill="white"/>
</clipPath>
</defs>
</svg>
