<svg width="24" height="24" viewBox="0 0 24 24" fill="none" xmlns="http://www.w3.org/2000/svg">
<path d="M12.771 3C10.384 3 8.09486 3.94821 6.40703 5.63604C4.71921 7.32387 3.771 9.61305 3.771 12H5.771C5.771 10.1435 6.50849 8.36301 7.82125 7.05025C9.134 5.7375 10.9145 5 12.771 5C14.6275 5 16.408 5.7375 17.7207 7.05025C19.0335 8.36301 19.771 10.1435 19.771 12C19.771 13.8565 19.0335 15.637 17.7207 16.9497C16.408 18.2625 14.6275 19 12.771 19C10.841 19 9.091 18.21 7.831 16.94C6.571 15.67 4.781 16.72 6.411 18.36C8.041 20 10.271 21 12.771 21C15.1579 21 17.4471 20.0518 19.135 18.364C20.8228 16.6761 21.771 14.3869 21.771 12C21.771 9.61305 20.8228 7.32387 19.135 5.63604C17.4471 3.94821 15.1579 3 12.771 3Z" fill="#008446"/>
<path d="M9 12.1323L11 9.13232" stroke="#008446" stroke-width="1.4" stroke-linecap="round"/>
<path d="M9 12.1323H2" stroke="#008446" stroke-width="1.4" stroke-linecap="round"/>
<path d="M11 9.13232L14 16.1323" stroke="#008446" stroke-width="1.4" stroke-linecap="round"/>
<path d="M14 16.1323L16.5 13.1323" stroke="#008446" stroke-width="1.4" stroke-linecap="round"/>
</svg>
