<svg width="24" height="24" viewBox="0 0 24 24" fill="none" xmlns="http://www.w3.org/2000/svg">
<g clip-path="url(#clip0_44036_382888)">
<mask id="mask0_44036_382888" style="mask-type:alpha" maskUnits="userSpaceOnUse" x="0" y="0" width="25" height="25">
<rect x="0.161865" y="0.598251" width="24" height="24" fill="#D9D9D9"/>
</mask>
<g mask="url(#mask0_44036_382888)">
<path d="M2.16187 20.5983V4.59825H22.1619V20.5983H2.16187ZM4.16187 18.5983H20.1619V6.59825H4.16187V18.5983ZM8.16187 17.5983H10.1619V16.5983H11.1619C11.4452 16.5983 11.6827 16.5024 11.8744 16.3108C12.066 16.1191 12.1619 15.8816 12.1619 15.5983V12.5983C12.1619 12.3149 12.066 12.0774 11.8744 11.8858C11.6827 11.6941 11.4452 11.5983 11.1619 11.5983H8.16187V10.5983H12.1619V8.59825H10.1619V7.59825H8.16187V8.59825H7.16187C6.87853 8.59825 6.64103 8.69408 6.44937 8.88575C6.2577 9.07742 6.16187 9.31492 6.16187 9.59825V12.5983C6.16187 12.8816 6.2577 13.1191 6.44937 13.3108C6.64103 13.5024 6.87853 13.5983 7.16187 13.5983H10.1619V14.5983H6.16187V16.5983H8.16187V17.5983ZM16.1619 16.8483L18.1619 14.8483H14.1619L16.1619 16.8483ZM14.1619 10.5983H18.1619L16.1619 8.59825L14.1619 10.5983Z" fill="#008446"/>
</g>
</g>
<defs>
<clipPath id="clip0_44036_382888">
<rect width="24" height="24" fill="white"/>
</clipPath>
</defs>
</svg>
