<svg width="24" height="24" viewBox="0 0 24 24" fill="none" xmlns="http://www.w3.org/2000/svg">
<g clip-path="url(#clip0_18678_50739)">
<path d="M20.2683 6.28984C19.5933 6.28984 20.1586 6.28984 19.1433 6.28984L18.75 6.25755H17.0625L15.4875 3.11834C15.375 2.90906 15.2625 2.69978 15.0375 2.59514C14.475 2.07194 13.575 1.9673 12.7875 2.28122L12 2.4905L11.2125 2.17658C10.425 1.86266 9.525 1.9673 8.9625 2.4905C8.7375 2.69978 8.625 2.90906 8.5125 3.11834L6.9375 6.25755H5.25C5.25 6.25755 6.20581 6.25755 4.51831 6.25755C2.83081 6.25755 3.95581 6.25755 3.39331 6.25755H3C3 7.4086 4.0125 8.35036 5.25 8.35036H18.75C19.9875 8.35036 21 7.4086 21 6.25755L20.8308 6.28984C20.8308 5.76664 20.9433 6.28984 20.2683 6.28984ZM3 23V19.8608C3 17.0669 8.99625 15.6752 12 15.6752C15.0037 15.6752 21 17.0669 21 19.8608V23H3ZM18.8625 21.0118V19.8608C18.8625 19.1911 15.3413 17.6633 12 17.6633C8.65875 17.6633 5.1375 19.1911 5.1375 19.8608V21.0118H18.8625ZM16.5 9.39676V10.4432C16.5 12.7557 14.4862 14.6288 12 14.6288C9.51375 14.6288 7.5 12.7557 7.5 10.4432V9.39676H9.75V10.4432C9.75 11.6047 10.7625 12.536 12 12.536C13.2375 12.536 14.25 11.6047 14.25 10.4432V9.39676H16.5Z" fill="#008446"/>
</g>
<defs>
<clipPath id="clip0_18678_50739">
<rect width="24" height="24" fill="white"/>
</clipPath>
</defs>
</svg>
