<svg width="29" height="28" viewBox="0 0 29 28" fill="none" xmlns="http://www.w3.org/2000/svg">
<path d="M22 6C22.5304 6 23.0391 6.21071 23.4142 6.58579C23.7893 6.96086 24 7.46957 24 8V22C24 22.5304 23.7893 23.0391 23.4142 23.4142C23.0391 23.7893 22.5304 24 22 24H8C7.46957 24 6.96086 23.7893 6.58579 23.4142C6.21071 23.0391 6 22.5304 6 22V8C6 7.46957 6.21071 6.96086 6.58579 6.58579C6.96086 6.21071 7.46957 6 8 6H12.18C12.6 4.84 13.7 4 15 4C16.3 4 17.4 4.84 17.82 6H22ZM15 6C14.7348 6 14.4804 6.10536 14.2929 6.29289C14.1054 6.48043 14 6.73478 14 7C14 7.26522 14.1054 7.51957 14.2929 7.70711C14.4804 7.89464 14.7348 8 15 8C15.2652 8 15.5196 7.89464 15.7071 7.70711C15.8946 7.51957 16 7.26522 16 7C16 6.73478 15.8946 6.48043 15.7071 6.29289C15.5196 6.10536 15.2652 6 15 6ZM10 10V8H8V22H22V8H20V10H10Z" fill="#008446"/>
<path d="M20.2939 12.418L13 19.7129L9.70703 16.4199L10.4102 15.7158L12.6475 17.9443L13.001 18.2969L13.3535 17.9434L19.5879 11.708L20.2939 12.418Z" fill="#008446" stroke="#008446"/>
</svg>
