<svg width="24" height="24" viewBox="0 0 24 24" fill="none" xmlns="http://www.w3.org/2000/svg">
<g clip-path="url(#clip0_38843_139624)">
<path d="M15.75 21.16L13 18.16L14.16 17L15.75 18.59L19.34 15L20.5 16.41L15.75 21.16ZM1 3H19V5C17.9 5 17 5.9 17 7V12C16.3 12 15.63 12.12 15 12.34V5H5V7H10V8H5V9H8V10H5V11H8V12H5V13H10V14H5V15H8V16H5V19H11.08C11.2 19.72 11.45 20.39 11.8 21H5C3.9 21 3 20.11 3 19V7C3 5.9 2.11 5 1 5V3Z" fill="#008446"/>
</g>
<defs>
<clipPath id="clip0_38843_139624">
<rect width="24" height="24" fill="white"/>
</clipPath>
</defs>
</svg>
