<svg width="24" height="24" viewBox="0 0 24 24" fill="none" xmlns="http://www.w3.org/2000/svg">
<g clip-path="url(#clip0_11604_43497)">
<path d="M11.2993 19.9985C11.2304 19.9985 11.1615 19.997 11.0926 19.9925C8.88822 19.8412 6.61345 18.5994 5.00509 16.6701C3.51204 14.8786 2.81568 12.7935 3.04181 10.7982C3.32335 8.32214 5.23721 6.65794 7.804 6.65794C8.00317 6.65794 8.20534 6.66843 8.40901 6.6894C9.77626 4.83047 12.3281 3 15.0671 3C15.7634 3 16.4343 3.12283 17.0573 3.36699C18.7301 4.02009 19.8577 5.61239 19.997 7.52225C19.9985 7.55071 20 7.57318 20 7.59415V8.26372C20 8.31316 19.9955 8.36259 19.988 8.41202L19.8248 9.39166C19.8203 9.41863 19.8158 9.44409 19.8083 9.46806C19.3291 11.4169 18.0891 13.2339 16.3115 14.5955C16.5871 17.3382 15.0237 19.5147 12.4659 19.9161C12.385 19.9281 12.3026 19.9371 12.2203 19.9446C12.1409 19.9521 12.066 19.9581 12.0136 19.97C11.9477 19.985 11.8803 19.9925 11.8144 19.9925C11.8144 19.9925 11.738 19.9925 11.7141 19.9925C11.6512 19.9925 11.5883 19.994 11.5239 19.9955C11.449 19.997 11.3741 20 11.2993 20V19.9985ZM5.13687 11.5337C5.13687 13.3088 6.26153 15.1242 7.45807 16.1863C8.40451 17.0266 10.0353 17.8744 11.5419 17.8744C12.0885 17.8744 12.5752 17.7606 12.9885 17.5374C12.9765 17.5045 12.9391 17.4056 12.9391 17.4056C12.4284 16.035 11.3517 14.9969 9.98592 14.558C9.80023 14.4981 9.60405 14.4532 9.39589 14.4052C9.19222 14.3588 8.98107 14.3094 8.76692 14.245C7.29184 13.7926 6.00695 12.8234 5.13687 11.5322V11.5337ZM6.30795 9.14451C6.33491 9.21341 6.36636 9.2958 6.40529 9.38867L6.42177 9.43061C6.98185 10.8192 8.05109 11.8123 9.43183 12.2287C9.5696 12.2707 9.71636 12.3021 9.87211 12.3366C10.0234 12.3695 10.1806 12.404 10.3408 12.4489C11.9567 12.9073 13.3314 13.9124 14.218 15.2576C14.227 13.8405 13.5651 12.3201 12.373 11.0394C11.0582 9.62684 9.33599 8.785 7.76506 8.785C7.67072 8.785 7.57637 8.788 7.48502 8.79399C7.11363 8.81796 6.62992 8.96326 6.30795 9.14451ZM14.3183 10.0343C14.9338 10.7982 15.3861 11.5277 15.6991 12.2572C15.7065 12.2737 15.714 12.2917 15.7215 12.3081C16.3325 11.7299 16.8357 11.0813 17.1921 10.4133C18.1191 8.67416 17.9678 7.22865 17.4871 6.38532C16.8956 6.59803 16.4748 6.81073 16.1049 7.08036C15.1779 7.75892 14.5624 8.77751 14.3183 10.0328V10.0343ZM10.6853 7.28558C10.9728 7.40691 11.2933 7.5552 11.6048 7.73346C11.9821 7.94766 12.2847 8.18583 12.5767 8.41651C13.0529 7.09833 13.9934 5.91647 15.1914 5.13904C15.1345 5.13605 15.0761 5.13455 15.0177 5.13455C13.3254 5.13455 11.7231 6.19508 10.6853 7.28408V7.28558Z" fill="#008446"/>
</g>
<defs>
<clipPath id="clip0_11604_43497">
<rect width="24" height="24" fill="white"/>
</clipPath>
</defs>
</svg>
