<svg width="24" height="24" viewBox="0 0 24 24" fill="none" xmlns="http://www.w3.org/2000/svg">
<g clip-path="url(#clip0_7381_42428)">
<path d="M8.17725 11.8672H16.1772V13.8672H8.17725V11.8672ZM10.1772 19.8672H6.17725V3.86719H13.1772V8.86719H18.1772V11.9672L20.1772 9.96719V7.86719L14.1772 1.86719H6.17725C5.64681 1.86719 5.13811 2.0779 4.76303 2.45297C4.38796 2.82805 4.17725 3.33675 4.17725 3.86719V19.8672C4.17725 20.3976 4.38796 20.9063 4.76303 21.2814C5.13811 21.6565 5.64681 21.8672 6.17725 21.8672H10.1772V19.8672ZM8.17725 17.8672H12.2772L13.1772 16.9672V15.8672H8.17725V17.8672ZM20.3772 12.8672C20.4772 12.8672 20.6772 12.9672 20.7772 13.0672L22.0772 14.3672C22.2772 14.5672 22.2772 14.9672 22.0772 15.1672L21.0772 16.1672L18.9772 14.0672L19.9772 13.0672C20.0772 12.9672 20.1772 12.8672 20.3772 12.8672ZM20.3772 16.7672L14.2772 22.8672H12.1772V20.7672L18.2772 14.6672L20.3772 16.7672Z" fill="#008446"/>
</g>
<defs>
<clipPath id="clip0_7381_42428">
<rect width="24" height="24" fill="white"/>
</clipPath>
</defs>
</svg>
